<?xml version="1.0" encoding="UTF-8" standalone="no"?>
<!-- Created with Inkscape (http://www.inkscape.org/) -->
<svg xmlns:rdf="http://www.w3.org/1999/02/22-rdf-syntax-ns#" xmlns="http://www.w3.org/2000/svg" xml:space="preserve" height="162.47" viewBox="0 0 141.51413 162.47491" width="141.51" version="1.1" xmlns:cc="http://creativecommons.org/ns#" xmlns:dc="http://purl.org/dc/elements/1.1/"><metadata><rdf:RDF><cc:Work rdf:about=""><dc:format>image/svg+xml</dc:format><dc:type rdf:resource="http://purl.org/dc/dcmitype/StillImage"/><dc:title/></cc:Work></rdf:RDF></metadata><defs><clipPath id="clipPath28" clipPathUnits="userSpaceOnUse"><path d="m0 800h800v-800h-800z"/></clipPath></defs><g transform="matrix(1.3333 0 0 -1.3333 -635.62 516.75)"><g transform="translate(-118.64 21.186)"><g clip-path="url(#clipPath28)"><g transform="translate(492.68 484.16)"><path d="m0 0s8.54 1.856 6.948-2.526c-1.593-4.381-6.948 2.526-6.948 2.526m1.45-11.157c-3.296-3.296-5.233 5.223-5.233 5.223s8.53-1.927 5.233-5.223m-5.832 14.484c-0.162-0.193-0.395-0.528-0.7-0.832-0.304-0.314-0.679-0.72-1.105-1.095s-0.903-0.751-1.42-1.126c-0.528-0.355-1.086-0.7-1.684-1.004-0.598-0.305-1.237-0.568-1.886-0.781-1.309-0.426-2.698-0.629-4.088-0.609-1.39 0.01-2.789 0.244-4.088 0.68-1.308 0.436-2.525 1.085-3.57 1.795-0.517 0.355-1.004 0.73-1.42 1.106-0.426 0.355-0.801 0.76-1.105 1.065-0.305 0.294-0.538 0.628-0.7 0.811-0.173 0.193-0.254 0.325-0.254 0.325-0.801 1.176-0.761 2.687 0 3.803 0 0 0.081 0.122 0.254 0.325 0.162 0.182 0.395 0.517 0.7 0.801 0.304 0.314 0.679 0.72 1.105 1.075 0.416 0.365 0.903 0.741 1.42 1.106 1.045 0.71 2.262 1.359 3.57 1.785 1.299 0.436 2.698 0.669 4.088 0.69 1.39 0.02 2.779-0.193 4.088-0.619 0.649-0.213 1.288-0.467 1.886-0.771 0.598-0.314 1.156-0.649 1.684-1.014 0.517-0.365 0.994-0.741 1.42-1.126 0.426-0.365 0.801-0.771 1.105-1.096 0.305-0.294 0.538-0.639 0.7-0.821 0.162-0.203 0.254-0.335 0.254-0.335 0.781-1.186 0.73-2.688 0-3.803 0 0-0.092-0.132-0.254-0.335m-2.809-19.982c-4.372-1.602-2.526 6.938-2.526 6.938s6.907-5.345 2.526-6.938m-10.143-1.338c-4.646 0.405 0.639 7.363 0.639 7.363s4.006-7.769-0.639-7.363m-9.758 3.073c-4.047 2.333 3.692 6.41 3.692 6.41s0.345-8.733-3.692-6.41m-7.556 6.917c-2.668 3.824 6.055 4.24 6.055 4.24s-3.377-8.053-6.055-4.24m-3.915 9.464c-0.812 4.584 7.282 1.278 7.282 1.278s-6.471-5.873-7.282-1.278m0.446 10.224c1.207 4.503 7.141-1.917 7.141-1.917s-8.348-2.587-7.141 1.917m4.727 9.077c3.002 3.571 5.67-4.757 5.67-4.757s-8.663 1.187-5.67 4.757m8.124 6.228c4.219 1.968 3.124-6.694 3.124-6.694s-7.354 4.726-3.124 6.694m11.279 2.222c4.666 0 0-7.395 0-7.395s-4.656 7.395 0 7.395m12.273-4.281c3.824-2.677-4.24-6.055-4.24-6.055s0.426 8.733 4.24 6.055m10.001-17.304c0.405-4.645-7.364-0.649-7.364-0.649s6.948 5.285 7.364 0.649m-3.084 9.758c2.333-4.037-6.4-3.692-6.4-3.692s4.067 7.729 6.4 3.692m-20.478 19.88c-21.26 0-38.502-14.19-38.502-31.707 0-17.506 17.242-31.706 38.502-31.706 21.259 0 38.502 14.2 38.502 31.706 0 17.517-17.243 31.707-38.502 31.707" fill="#77c043"/></g><g transform="translate(477.41 458.01)"><path d="m0 0c-21.259 0-38.502 14.2-38.502 31.707 0 17.516 17.243 31.706 38.502 31.706s38.502-14.19 38.502-31.706c0-17.507-17.243-31.707-38.502-31.707m0 66.578c-23.379 0-42.336-15.61-42.336-34.871 0-19.251 18.957-34.861 42.336-34.861s42.336 15.61 42.336 34.861c0 19.261-18.957 34.871-42.336 34.871" fill="#723116"/></g><g transform="translate(500.97 491.79)"><path d="m0 0c-0.416 4.635-7.364-0.649-7.364-0.649s7.77-3.996 7.364 0.649" fill="#723116"/></g><g transform="translate(497.89 501.54)"><path d="m0 0c-2.333 4.037-6.4-3.692-6.4-3.692s8.733-0.345 6.4 3.692" fill="#723116"/></g><g transform="translate(490.97 509.09)"><path d="m0 0c-3.814 2.678-4.24-6.055-4.24-6.055s8.064 3.377 4.24 6.055" fill="#723116"/></g><g transform="translate(478.7 513.37)"><path d="m0 0c-4.656 0 0-7.394 0-7.394s4.666 7.394 0 7.394" fill="#723116"/></g><g transform="translate(458.04 476.16)"><path d="m0 0c2.678-3.814 6.055 4.24 6.055 4.24s-8.723-0.416-6.055-4.24" fill="#723116"/></g><g transform="translate(475.35 466.17)"><path d="m0 0c4.646-0.406 0.639 7.364 0.639 7.364s-5.284-6.958-0.639-7.364" fill="#723116"/></g><g transform="translate(461.71 493.93)"><path d="m0 0s-5.934 6.42-7.141 1.917 7.141-1.917 7.141-1.917" fill="#723116"/></g><g transform="translate(488.9 478.23)"><path d="m0 0s1.937-8.52 5.234-5.224c3.296 3.297-5.234 5.224-5.234 5.224" fill="#723116"/></g><g transform="translate(499.63 481.63)"><path d="m0 0c1.592 4.382-6.948 2.526-6.948 2.526s5.356-6.908 6.948-2.526" fill="#723116"/></g><g transform="translate(454.12 485.62)"><path d="m0 0c0.811-4.595 7.282 1.278 7.282 1.278s-8.093 3.307-7.282-1.278" fill="#723116"/></g><g transform="translate(464.96 500.16)"><path d="m0 0s-2.668 8.327-5.67 4.757c-2.992-3.57 5.67-4.757 5.67-4.757" fill="#723116"/></g><g transform="translate(465.59 469.24)"><path d="m0 0c4.037-2.323 3.692 6.41 3.692 6.41s-7.739-4.077-3.692-6.41" fill="#723116"/></g><g transform="translate(482.97 474.44)"><path d="m0 0s-1.846-8.54 2.526-6.938c4.381 1.593-2.526 6.938-2.526 6.938" fill="#723116"/></g><g transform="translate(470.54 504.45)"><path d="m0 0s1.095 8.662-3.124 6.694c-4.23-1.967 3.124-6.694 3.124-6.694" fill="#723116"/></g><g transform="translate(488.56 491.62)"><path d="m0 0s-0.091 0.132-0.254 0.335c-0.162 0.182-0.395 0.527-0.699 0.821-0.305 0.325-0.68 0.73-1.106 1.096-0.426 0.385-0.903 0.76-1.42 1.126-0.528 0.365-1.085 0.699-1.684 1.014-0.598 0.304-1.237 0.558-1.886 0.771-1.309 0.426-2.698 0.639-4.088 0.618-1.389-0.02-2.789-0.253-4.087-0.689-1.309-0.426-2.526-1.076-3.571-1.785-0.517-0.366-1.004-0.741-1.42-1.106-0.426-0.355-0.801-0.761-1.105-1.075-0.305-0.284-0.538-0.619-0.7-0.802-0.173-0.202-0.254-0.324-0.254-0.324-0.76-1.116-0.801-2.627 0-3.804 0 0 0.081-0.132 0.254-0.324 0.162-0.183 0.395-0.517 0.7-0.812 0.304-0.304 0.679-0.71 1.105-1.065 0.416-0.375 0.903-0.75 1.42-1.105 1.045-0.71 2.262-1.359 3.571-1.795 1.298-0.437 2.698-0.67 4.087-0.68 1.39-0.02 2.779 0.183 4.088 0.609 0.649 0.212 1.288 0.476 1.886 0.78 0.599 0.305 1.156 0.65 1.684 1.005 0.517 0.375 0.994 0.75 1.42 1.125 0.426 0.376 0.801 0.782 1.106 1.096 0.304 0.304 0.537 0.639 0.699 0.832 0.163 0.202 0.254 0.334 0.254 0.334 0.73 1.116 0.781 2.617 0 3.804" fill="#f5ba18"/></g><g transform="translate(502.99 471.64)"><path d="m0 0c11.46 10.454 11.122 26.726-0.602 36.805-1.457 1.253-3.589-0.86-2.122-2.121 10.529-9.051 10.932-23.14 0.603-32.563-1.43-1.304 0.696-3.42 2.121-2.121" fill="#fff"/></g><g transform="translate(95.763 -22.881)"><g transform="translate(90.605 535.81)"><path d="m0 0c-7.049 3.956-16.999 4.909-23.755 0.03-0.953-0.669-1.846-1.47-2.657-2.403-0.73 0.841-1.531 1.572-2.383 2.211-6.756 5.102-16.898 4.169-24.039 0.162-10.569-5.923-14.464-17.567-12.881-29.13 0.892-6.522 3.915-12.212 6.886-17.973 4.271-8.287 6.989-19.191 13.643-25.895 2.556-2.576 6.268-3.469 9.798-3.327 2.424 0.101 8.499 0.761 8.976 3.925 0.467-3.164 6.542-3.824 8.966-3.925 3.53-0.142 7.242 0.751 9.798 3.327 6.654 6.704 9.372 17.608 13.653 25.895 2.961 5.761 5.984 11.451 6.877 17.973 1.582 11.563-2.313 23.207-12.882 29.13" fill="#e12226"/></g><g transform="translate(65.877 542.78)"><path d="m0 0c0.953-0.284 2.049-0.558 3.256-0.801 1.207-0.234 2.505-0.416 3.864-0.518 2.719-0.203 5.599-0.02 8.368 0.66 2.789 0.659 5.437 1.846 7.8 3.438 2.373 1.603 4.453 3.641 6.106 5.995 1.663 2.342 2.901 4.98 3.723 7.617 0.405 1.318 0.73 2.607 0.963 3.834 0.223 1.227 0.375 2.363 0.456 3.367 0.102 0.974 0.092 1.887 0.122 2.445 0.01 0.274-0.01 0.537-0.01 0.689v0.244s-0.081 0.04-0.223 0.101c-0.152 0.061-0.386 0.183-0.649 0.274-0.528 0.183-1.359 0.548-2.293 0.822-0.963 0.314-2.069 0.608-3.296 0.872-1.217 0.253-2.526 0.446-3.905 0.578-2.749 0.254-5.66 0.112-8.459-0.517-2.81-0.629-5.487-1.765-7.871-3.347-2.384-1.572-4.493-3.571-6.177-5.883-1.684-2.303-2.962-4.899-3.804-7.486-0.425-1.298-0.76-2.566-1.004-3.773-0.172-0.852-0.314-1.663-0.405-2.414 1.46-1.673 2.474-3.834 3.164-6.116 0.091-0.03 0.183-0.051 0.274-0.081" fill="#77c043"/></g><g transform="translate(64.193 533.43)"><path d="m0 0c0.811 0.933 1.704 1.734 2.657 2.404-0.152 2.221-0.527 4.686-1.247 7.029-0.69 2.282-1.704 4.442-3.165 6.116-1.288 1.501-2.931 2.617-5 3.114-3.175 0.75-4.524-4.149-1.349-4.899 0.162-0.041 0.253-0.051 0.294-0.041-0.101 0.091 0.111 0 0 0 0.04-0.02 0.122-0.081 0.294-0.182 0.862-0.528 1.308-0.822 1.998-1.613 0.507-0.588 0.943-1.227 1.299-1.897 1.257-2.343 1.693-5.142 1.836-7.82 0.851-0.639 1.653-1.369 2.383-2.211" fill="#723116"/></g><g transform="translate(56.383 547.16)"><path d="m0 0c0.112 0-0.101 0.091 0 0"/></g><g transform="translate(74.044 524.99)"><path d="m0 0c3.983 1.093 8.682-0.096 12.127-2.138 5.087-3.015 6.689-7.827 5.868-13.471-0.819-5.621-3.398-11.194-6.558-15.892-1.081-1.607 1.517-3.11 2.59-1.514 4.252 6.32 8.03 14.822 7.067 22.576-1.209 9.738-12.726 15.847-21.891 13.332-1.86-0.51-1.07-3.406 0.797-2.893" fill="#fff"/></g></g><g transform="translate(352.75 493.51)"><path d="m0 0c5.071 0 0-8.043 0-8.043s-5.071 8.043 0 8.043m-5.345-20.063s-5.072 8.044 0 8.044c5.071 0 0-8.044 0-8.044m-2.252 23.106c5.072 0 0-8.043 0-8.043s-5.071 8.043 0 8.043m4.503 14.301c5.082 0 0-8.043 0-8.043s-5.071 8.043 0 8.043m-10.518-45.45s-5.071 8.043 0 8.043c5.072 0 0-8.043 0-8.043m-3.732 24.789c5.071 0 0-8.043 0-8.043s-5.072 8.043 0 8.043m-4.514-35.794s-5.071 8.043 0 8.043c5.082 0 0-8.043 0-8.043m-1.805 23.927c5.071 0 0-8.043 0-8.043s-5.072 8.043 0 8.043m-2.252 15.884c5.071 0 0-8.043 0-8.043s-5.071 8.043 0 8.043m10.823 10.731c5.081 0 0-8.043 0-8.043s-5.072 8.043 0 8.043m-16.006-59.975s-5.082 8.044 0 8.044c5.071 0 0-8.044 0-8.044m-3.702 25.52c5.071 0 0-8.044 0-8.044s-5.071 8.044 0 8.044m-0.882 15.681c5.081 0 0-8.044 0-8.044s-5.072 8.044 0 8.044m0 16.644c5.081 0 0-8.043 0-8.043s-5.072 8.043 0 8.043m-7.841-16.644s-5.071 8.043 0 8.043c5.082 0 0-8.043 0-8.043m-1.349-13.795s-5.071 8.044 0 8.044c5.082 0 0-8.044 0-8.044m0-17.973s-5.071 8.043 0 8.043c5.082 0 0-8.043 0-8.043m-5.426 41.748s-5.072 8.043 0 8.043c5.071 0 0-8.043 0-8.043m-4.514-30.743s-5.071 8.043 0 8.043 0-8.043 0-8.043m-1.41 25.601c5.072 0 0-8.044 0-8.044s-5.071 8.044 0 8.044m-5.223 3.763s-5.072 8.043 0 8.043c5.071 0 0-8.043 0-8.043m58.493 23.896c-0.486-0.679-1.085-1.237-1.876-1.521-1.805-0.639-4.24 0.314-5.497-1.146-1.552-1.775 0.679-4.97-0.822-6.786-1.024-1.237-3.022-0.872-4.422-0.091-1.522 0.842-3.063 2.099-4.798 1.826-1.765-0.274-2.891-2.039-3.479-3.733-0.588-1.684-0.923-3.55-2.12-4.879-0.294-0.334-0.649-0.629-1.075-0.73-0.507-0.132-1.055 0.03-1.531 0.254-1.573 0.75-2.678 2.221-3.692 3.641-1.005 1.43-2.049 2.921-3.571 3.793-1.511 0.862-3.671 0.893-4.817-0.436-0.71-0.821-1.329-2.231-2.374-1.917-0.314 0.091-0.548 0.335-0.761 0.588-1.582 1.938-1.704 4.646-1.906 7.151-0.051 0.639-0.224 1.43-0.842 1.623-0.213 0.061-0.437 0.04-0.66 0-3.874-0.598-6.339-4.29-9.24-6.938-1.075-0.984-2.546-1.896-3.925-1.399-1.765 0.639-2.008 3.002-1.856 4.878 0.101 1.167 0.233 2.323 0.406 3.479-3.023-3.012-5.244-6.806-6.259-11.431-0.497-2.251-0.699-4.554-0.699-6.856 0-30.946 20.519-58.23 37.67-58.23 17.141 0 37.66 27.284 37.66 58.23 0 8.347-3.225 15.752-9.514 20.63" fill="#ef5178"/></g><g transform="translate(352.75 493.51)"><path d="m0 0c-5.071 0 0-8.043 0-8.043s5.071 8.043 0 8.043" fill="#e12226"/></g><g transform="translate(349.65 510.85)"><path d="m0 0c-5.071 0 0-8.043 0-8.043s5.082 8.043 0 8.043" fill="#e12226"/></g><g transform="translate(292.39 507.96)"><path d="m0 0c1.379-0.497 2.85 0.416 3.925 1.4 2.901 2.647 5.366 6.339 9.24 6.937 0.223 0.041 0.447 0.061 0.66 0 0.618-0.192 0.791-0.984 0.842-1.622 0.202-2.506 0.324-5.214 1.906-7.151 0.213-0.254 0.447-0.497 0.761-0.588 1.045-0.315 1.663 1.095 2.373 1.917 1.147 1.328 3.307 1.298 4.818 0.436 1.522-0.873 2.566-2.364 3.571-3.794 1.014-1.42 2.119-2.89 3.692-3.641 0.476-0.223 1.024-0.385 1.531-0.254 0.426 0.102 0.781 0.396 1.075 0.731 1.197 1.328 1.532 3.195 2.12 4.878 0.588 1.694 1.714 3.459 3.479 3.733 1.735 0.274 3.276-0.984 4.798-1.826 1.399-0.781 3.398-1.146 4.422 0.091 1.501 1.816-0.73 5.011 0.822 6.786 1.257 1.461 3.692 0.507 5.497 1.146 0.791 0.284 1.39 0.842 1.876 1.522-1.288 1.004-2.708 1.896-4.249 2.677-5.822 2.932-12.943 4.392-20.154 4.707 1.126 5.345-2.992 10.345-5.305 12.678-0.598 0.599-1.39 0.913-2.201 0.913-0.345 0-0.7-0.061-1.045-0.182-1.907-0.68-2.606-2.962-1.501-4.666 2.069-3.185 2.161-6.492 1.806-8.855-3.885-0.274-7.668-0.842-11.137-1.663-5.792-1.37-11.117-3.986-15.073-7.952-0.172-1.157-0.304-2.313-0.405-3.479-0.153-1.877 0.091-4.24 1.856-4.879" fill="#77c043"/></g><g transform="translate(347.4 481.49)"><path d="m0 0c-5.071 0 0-8.043 0-8.043s5.072 8.043 0 8.043" fill="#e12226"/></g><g transform="translate(345.15 496.55)"><path d="m0 0c-5.071 0 0-8.043 0-8.043s5.072 8.043 0 8.043" fill="#e12226"/></g><g transform="translate(339.14 473.44)"><path d="m0 0c-5.071 0 0-8.043 0-8.043s5.071 8.043 0 8.043" fill="#e12226"/></g><g transform="translate(337.66 504.94)"><path d="m0 0c-5.072 0 0-8.043 0-8.043s5.082 8.043 0 8.043" fill="#e12226"/></g><g transform="translate(335.4 490.19)"><path d="m0 0c-5.071 0 0-8.043 0-8.043s5.072 8.043 0 8.043" fill="#e12226"/></g><g transform="translate(330.89 462.44)"><path d="m0 0c-5.071 0 0-8.043 0-8.043s5.082 8.043 0 8.043" fill="#e12226"/></g><g transform="translate(329.09 478.32)"><path d="m0 0c-5.072 0 0-8.043 0-8.043s5.071 8.043 0 8.043" fill="#e12226"/></g><g transform="translate(326.83 494.21)"><path d="m0 0c-5.071 0 0-8.043 0-8.043s5.071 8.043 0 8.043" fill="#e12226"/></g><g transform="translate(321.65 453.01)"><path d="m0 0c-5.082 0 0-8.043 0-8.043s5.071 8.043 0 8.043" fill="#e12226"/></g><g transform="translate(317.95 470.48)"><path d="m0 0c-5.071 0 0-8.043 0-8.043s5.071 8.043 0 8.043" fill="#e12226"/></g><g transform="translate(317.07 502.81)"><path d="m0 0c-5.072 0 0-8.043 0-8.043s5.082 8.043 0 8.043" fill="#e12226"/></g><g transform="translate(317.07 486.16)"><path d="m0 0c-5.072 0 0-8.043 0-8.043s5.082 8.043 0 8.043" fill="#e12226"/></g><g transform="translate(309.23 494.21)"><path d="m0 0c-5.072 0 0-8.043 0-8.043s5.082 8.043 0 8.043" fill="#e12226"/></g><g transform="translate(307.88 480.41)"><path d="m0 0c-5.071 0 0-8.043 0-8.043s5.082 8.043 0 8.043" fill="#e12226"/></g><g transform="translate(307.88 462.44)"><path d="m0 0c-5.071 0 0-8.043 0-8.043s5.082 8.043 0 8.043" fill="#e12226"/></g><g transform="translate(302.45 504.19)"><path d="m0 0c-5.071 0 0-8.043 0-8.043s5.071 8.043 0 8.043" fill="#e12226"/></g><g transform="translate(297.94 473.44)"><path d="m0 0c-5.072 0 0-8.043 0-8.043s5.071 8.043 0 8.043" fill="#e12226"/></g><g transform="translate(296.53 491)"><path d="m0 0c-5.071 0 0-8.043 0-8.043s5.071 8.043 0 8.043" fill="#e12226"/></g><g transform="translate(291.3 502.81)"><path d="m0 0c-5.072 0 0-8.043 0-8.043s5.071 8.043 0 8.043" fill="#e12226"/></g><g transform="translate(328.61 451.84)"><path d="m0 0c17.063 11.134 21.476 31.718 19.918 50.88-0.156 1.911-3.157 1.928-3 0 1.466-18.033-2.263-37.739-18.432-48.29-1.611-1.051-0.109-3.649 1.514-2.59" fill="#fff"/></g><g transform="translate(673.48 517.22)"><path d="m0 0c-1.166 0.811-2.404 1.531-3.662 2.211-5.903 3.195-10.183 8.307-10.031 15.356 0.061 2.759-1.491 5.285-4.057 6.289l-0.315 0.122c-5.132 1.998-10.426-2.719-8.925-8.013 1.247-4.382 3.945-9.139 6.035-12.415 1.947-3.063 2.759-6.715 2.272-10.315-4.676-34.557-36.038-39.192-36.038-39.192s-19.241-4.118-24.819-6.887c0.984-6.106 0.527-12.506-0.791-18.582-0.071-0.314-0.142-0.639-0.224-0.953 36.576-18.46 76.183 3.296 87.087 34.039 4.463 12.608 5.944 29.658-6.532 38.34" fill="#f7da05"/></g><g transform="translate(593.94 464.38)"><path d="m0 0c-0.304-0.142-0.558-0.284-0.771-0.426-2.505-1.602-5.528-2.586-7.607-3.114-1.451-0.375-2.455-1.694-2.455-3.185v-5.091c0-1.076 0.518-2.09 1.4-2.698 2.779-1.927 5.589-3.591 8.419-5.021 0.081 0.314 0.152 0.639 0.223 0.953 1.318 6.076 1.775 12.476 0.791 18.582" fill="#f5ba18"/></g><g transform="translate(610.39 446.37)"><path d="m0 0s51.148-11.815 65.101 46.443" fill="#f7da05"/></g><g transform="translate(609.99 444.92)"><path d="m0 0c9.304-2.117 19.847-1.229 28.863 1.605 21.062 6.62 32.985 25.286 38.083 45.885 0.464 1.874-2.429 2.674-2.893 0.798-4.982-20.132-16.635-38.347-37.478-44.235-8.098-2.287-17.482-3.048-25.777-1.16-1.88 0.428-2.683-2.464-0.798-2.893" fill="#fff"/></g><g transform="translate(15.254 -11.864)"><g transform="translate(685.84 362.04)"><path d="m0 0s-0.071 0.051-0.203 0.132c-0.132 0.091-0.345 0.243-0.578 0.375-0.487 0.264-1.237 0.771-2.11 1.197-0.882 0.456-1.917 0.933-3.073 1.39-1.146 0.456-2.404 0.862-3.722 1.217-2.658 0.7-5.549 1.044-8.419 0.892-1.014-0.05-2.019-0.172-3.012-0.355-1.836-0.334-3.632-0.882-5.336-1.623-2.647-1.146-5.071-2.789-7.14-4.817-2.069-2.009-3.794-4.402-5.082-6.857-0.649-1.227-1.207-2.444-1.653-3.621-0.325-0.842-0.599-1.643-0.832-2.383 1.136-1.431 2.272-2.942 3.398-4.555 0.68-0.963 1.349-1.967 2.009-3.002 1.054-0.426 2.2-0.811 3.397-1.156 2.668-0.751 5.589-1.146 8.469-1.035 2.891 0.112 5.762 0.741 8.409 1.866 2.647 1.126 5.102 2.709 7.191 4.697 2.09 1.967 3.824 4.3 5.143 6.714 0.659 1.197 1.227 2.394 1.683 3.54 0.467 1.146 0.832 2.221 1.106 3.185 0.294 0.923 0.446 1.815 0.578 2.343 0.071 0.274 0.102 0.527 0.132 0.679 0.03 0.163 0.041 0.244 0.041 0.244z" fill="#77c043"/></g><g transform="translate(658.53 302.67)"><path d="m0 0c-10.894-1.968-19.14-11.492-19.14-22.953 0-12.882 10.448-23.329 23.339-23.329 12.882 0 23.329 10.447 23.329 23.329 0 12.607-9.991 22.872-22.477 23.318-0.284 0.01-0.568 0.02-0.852 0.02-1.43 0-2.84-0.131-4.199-0.385" fill="#e12226"/></g><g transform="translate(645.52 349.97)"><path d="m0 0c0.446 1.177 1.004 2.394 1.653 3.621 1.288 2.455 3.013 4.848 5.082 6.856 2.069 2.029 4.493 3.672 7.14 4.818 1.704 0.741 3.5 1.289 5.336 1.623-0.163 1.055-0.386 2.09-0.68 3.074-0.325 1.095-0.69 2.13-1.095 3.073-0.406 0.953-0.822 1.805-1.228 2.536-0.375 0.71-0.801 1.328-1.034 1.724-0.122 0.192-0.254 0.365-0.325 0.466-0.081 0.112-0.122 0.173-0.122 0.173l-0.781 0.314s-0.071-0.02-0.202-0.04c-0.122-0.031-0.335-0.061-0.558-0.122-0.447-0.132-1.187-0.274-1.948-0.538-0.791-0.253-1.673-0.578-2.627-0.994-0.943-0.405-1.927-0.902-2.911-1.47-1.978-1.146-3.884-2.648-5.477-4.433-1.613-1.785-2.87-3.854-3.753-6.085-0.882-2.232-1.349-4.626-1.369-7.04-0.03-2.028 0.243-4.077 0.751-5.984 1.095-1.237 2.211-2.556 3.316-3.956 0.233 0.741 0.507 1.542 0.832 2.384" fill="#30592b"/></g><g transform="translate(644.68 347.58)"><path d="m0 0c-1.106 1.4-2.221 2.718-3.317 3.956-5.152 5.822-9.909 9.777-12.688 11.877-1.278 0.964-3.013 0.994-4.321 0.081-1.319-0.923-1.887-2.566-1.42-4.108 2.028-6.664 2.87-12.831 2.87-18.47 0-19.423-9.991-32.65-15.904-38.786 1.724-0.477 3.357-1.167 4.889-2.029 8.155 9.18 20.874 28.765 14.139 56.587 3.652-3.114 8.591-7.901 13.419-14.382 7.12-9.535 13.997-22.741 16.178-39.639 1.359 0.254 2.769 0.386 4.199 0.386 0.284 0 0.568-0.01 0.852-0.021-1.886 15.093-7.313 27.417-13.49 36.992-0.659 1.034-1.328 2.038-2.008 3.002-1.126 1.613-2.262 3.124-3.398 4.554" fill="#723116"/></g><g transform="translate(603.44 303.05)"><path d="m0 0c-12.891 0-23.339-10.447-23.339-23.339 0-12.881 10.448-23.328 23.339-23.328 12.882 0 23.329 10.447 23.329 23.328 0 8.764-4.828 16.401-11.979 20.387-1.532 0.863-3.165 1.552-4.889 2.029-2.049 0.609-4.219 0.923-6.461 0.923" fill="#e12226"/></g><g transform="translate(603.44 295.75)"><path d="m0 0c8.913-0.24 15.789-7.116 16.03-16.03 0.052-1.926 3.052-1.934 3 0-0.285 10.565-8.466 18.745-19.03 19.03-1.931 0.052-1.93-2.948 0-3" fill="#fff"/></g><g transform="translate(662.72 295.75)"><path d="m0 0c8.913-0.24 15.789-7.116 16.029-16.03 0.052-1.926 3.053-1.934 3 0-0.284 10.565-8.465 18.745-19.029 19.03-1.931 0.052-1.93-2.948 0-3" fill="#fff"/></g></g><g transform="translate(488.67 236.56)"><path d="m0 0-6.17 10.53 7.17 12.25 2.39-4.06 1.48 2.54 4.57-7.8-7.53-12.87c-0.63-0.21-1.27-0.41-1.91-0.59" fill="#f5ba18"/></g><g transform="translate(480.75 244.11)"><path d="m0 0 1.75 2.98 6.17-10.53c-3.09-0.88-6.32-1.34-9.63-1.34s-6.54 0.46-9.63 1.34l7.88 13.45z" fill="#f16022"/></g><g transform="translate(482.5 247.09)"><path d="m0 0-1.75-2.98-3.46 5.9 1.75 2.99z" fill="#f16022"/></g><g transform="translate(482.5 247.09)"><path d="m0 0-3.46 5.91-1.75-2.99-4.4 7.53 7.98 13.63 2.36-4.02 0.94 1.6 5.5-9.41z" fill="#f7da05"/></g><g transform="translate(514.13 284.92)"><path d="m0 0-2.74-4.69-6.75 11.52 6.18 10.55 2.06-3.51 2.22 3.8l6.91-11.81c0.03-0.81 0.05-1.63 0.05-2.46 0-4.94-0.55-9.72-1.57-14.26z" fill="#f7da05"/></g><g transform="translate(493.54 257.82)"><path d="m0 0-2.38 4.06-1.49-2.54-5.5 9.41 6.73 11.48 1.32-2.25 2.74 4.69 6.57-11.22z" fill="#f16022"/></g><g transform="translate(492.06 255.28)"><path d="m0 0-2.39 4.06 1.49 2.54 2.38-4.06z" fill="#f5ba18"/></g><g transform="translate(501.53 271.45)"><path d="m0 0 2.36-4.02 0.77 1.32 5.5-9.41-7.01-11.96-3.29 5.62-1.75-2.98-4.57 7.8z" fill="#f7da05"/></g><g transform="translate(503.89 267.43)"><path d="m0 0-2.36 4.02 0.77 1.32 2.36-4.02z" fill="#f7da05"/></g><g transform="translate(504.64 291.75)"><path d="m0 0 6.75-11.52-6.73-11.48l-2.36 4.02-0.77-1.32-6.57 11.22 5.66 9.65 2.18-3.72z" fill="#f5ba18"/></g><g transform="translate(511.39 280.23)"><path d="m0 0 2.74 4.69 6.36-10.86c-1.34-5.97-3.51-11.52-6.34-16.45l-2.5 4.27-1.49-2.54-5.5 9.41z" fill="#f16022"/></g><g transform="translate(522.01 290.78)"><path d="m0 0-6.91 11.81 3.64 6.22c1.9-5.59 3.04-11.66 3.27-18.03" fill="#f16022"/></g><g transform="translate(518.74 308.81)"><path d="m0 0-3.64-6.22-2.06 3.51-2.22-3.8-6.18 10.56 6.41 10.94c3.2-4.39 5.81-9.45 7.69-14.99" fill="#f5ba18"/></g><g transform="translate(515.1 302.59)"><path d="m0 0-2.22-3.8-2.06 3.51 2.22 3.8z" fill="#f7da05"/></g><g transform="translate(511.65 261.88)"><path d="m0 0 2.5-4.27c-0.49-0.84-1-1.67-1.52-2.47l-2.47 4.2z" fill="#f5ba18"/></g><g transform="translate(510.16 259.34)"><path d="m0 0 2.47-4.2c-2.4-3.7-5.19-6.99-8.3-9.77l-1.18 2.01z" fill="#f5ba18"/></g><g transform="translate(511.05 323.8)"><path d="m0 0-6.41-10.94-2.01 3.42-2.01-3.43-6.13 10.46 6.33 10.81c3.83-2.77 7.28-6.26 10.23-10.32" fill="#f7da05"/></g><g transform="translate(502.63 309.42)"><path d="m0 0 2.01 3.44 6.18-10.56-6.18-10.55-2.18 3.72-1.84-3.15-6.01 10.27 6.01 10.26z" fill="#f16022"/></g><g transform="translate(506.88 360.76)"><path d="m0 0c-0.17-5.27-1.03-14.48-4.74-20.64-1.04-1.72-2.3-3.21-3.84-4.3-4.58 2.84-9.64 4.7-14.98 5.35-1.41 0.17-2.84 0.26-4.28 0.26 0 0 14.06 6.7 22.27 14.81 1.63 1.63 3.04 3.3 4.05 4.98 0.43 0.72 1.55 0.39 1.52-0.46" fill="#77c043"/></g><g transform="translate(506.25 386.92)"><path d="m0 0c0.58-5.69 0.94-18.37-4.95-30.67l0.01-0.01c-8.21-8.11-22.27-14.81-22.27-14.81s-6.02 2.87-12.47 7.12c0 0 6.48 4.89 14.2 11.69h0.01c2.05 1.81 4.18 3.74 6.31 5.76 7.27 6.89 14.45 14.71 17.61 21.21 0.36 0.74 1.47 0.54 1.55-0.29" fill="#30592b"/></g><g transform="translate(502.46 295.47)"><path d="m0 0 2.18-3.72-1.84-3.15-2.18 3.72z" fill="#f5ba18"/></g><g transform="translate(504.64 312.86)"><path d="m0 0-2.01-3.44-2.01 3.43 2.01 3.43z" fill="#f16022"/></g><g transform="translate(503.15 247.38)"><path d="m0 0-1.74-2.98-3.3 5.62 1.75 2.98z" fill="#f16022"/></g><g transform="translate(504.33 245.37)"><path d="m0 0c-0.73-0.67-1.49-1.3-2.26-1.9l-0.49 0.64-0.17 0.29 1.74 2.98z" fill="#f16022"/></g><g transform="translate(501.58 244.11)"><path d="m0 0 0.49-0.64c-3.52-2.77-7.38-4.91-11.49-6.32l7.53 12.87 3.3-5.62z" fill="#f16022"/></g><g transform="translate(500.82 334.12)"><path d="m0 0-6.33-10.81-2.11 3.6-0.95-1.62-8.3 14.18 0.19 1.7c5.34-0.65 10.4-2.51 14.98-5.35 0.86-0.53 1.7-1.1 2.52-1.7" fill="#f16022"/></g><g transform="translate(500.62 312.85)"><path d="m0 0-6.01-10.26-2.06 3.51-2.39-4.08-6.18 10.55 7.45 12.72 2.11-3.6 0.95 1.62z" fill="#f5ba18"/></g><g transform="translate(494.61 302.59)"><path d="m0 0 6.01-10.27-5.66-9.65-1.32 2.25-2.74-4.69-6.75 11.52 6.01 10.27 2.06-3.51z" fill="#f7da05"/></g><g transform="translate(493.64 284.92)"><path d="m0 0 1.32-2.25-2.74-4.69-1.32 2.25z" fill="#f16022"/></g><g transform="translate(494.61 302.59)"><path d="m0 0-2.39-4.08-2.06 3.51 2.39 4.08z" fill="#f7da05"/></g><g transform="translate(492.38 326.91)"><path d="m0 0 2.11-3.6-0.95-1.62-2.11 3.6z" fill="#f5ba18"/></g><g transform="translate(483.13 339.47)"><path d="m0 0 8.3-14.18-7.45-12.72-2.17 3.71-2.01-3.43-6.13 10.46z" fill="#f7da05"/></g><g transform="translate(490.9 280.23)"><path d="m0 0-6.73-11.48-2.36 4.02-0.94-1.6-6.57 11.22 5.66 9.65 2.18-3.72 2.01 3.43z" fill="#f5ba18"/></g><g transform="translate(483.98 312.57)"><path d="m0 0 6.18-10.55-6.01-10.27-2.18 3.72-2.01-3.43-6.17 10.55 6.01 10.26 2.17-3.71z" fill="#f16022"/></g><g transform="translate(481.89 399.07)"><path d="m0 0c2.85-3.93 10.4-16.21 5.2-33.07-2.13-2.02-4.26-3.95-6.31-5.76h-0.01c-0.3 0.26-6.02 5.06-12.35 11.45 0.85 1.26 8.76 12.67 12 27.05 0.16 0.7 1.05 0.9 1.47 0.33" fill="#77c043"/></g><g transform="translate(484.17 268.75)"><path d="m0 0-0.94-1.6-2.36 4.02 0.94 1.6z" fill="#f7da05"/></g><g transform="translate(481.97 295.47)"><path d="m0 0 2.18-3.72-2.01-3.43-2.18 3.72z" fill="#f5ba18"/></g><g transform="translate(481.81 316.28)"><path d="m0 0 2.17-3.71-2.01-3.43-2.17 3.71z" fill="#f16022"/></g><g transform="translate(483.32 341.17)"><path d="m0 0-0.19-1.7-9.46-16.16-2.11 3.6-0.95-1.62-7.3 12.47c4.87 2.37 10.18 3.67 15.73 3.67 1.44 0 2.87-0.09 4.28-0.26" fill="#f16022"/></g><g transform="translate(473.79 302.59)"><path d="m0 0 6.17-10.55-5.66-9.65-1.48 2.53-2.74-4.69-6.75 11.52 6.01 10.27 2.06-3.51z" fill="#f7da05"/></g><g transform="translate(479.8 312.85)"><path d="m0 0-6.01-10.26-2.06 3.51-2.39-4.08-6.18 10.55 7.45 12.72 2.11-3.6 0.95 1.62z" fill="#f5ba18"/></g><g transform="translate(472.89 257.54)"><path d="m0 0 4.4-7.53-7.88-13.45c-0.64 0.18-1.28 0.38-1.91 0.59l-5.82 9.94 7.17 12.25 2.55-4.34z" fill="#f5ba18"/></g><g transform="translate(474.3 282.39)"><path d="m0 0-2.74-4.69-1.48 2.53 2.74 4.69z" fill="#f16022"/></g><g transform="translate(473.79 302.59)"><path d="m0 0-2.39-4.08-2.06 3.51 2.39 4.08z" fill="#f7da05"/></g><g transform="translate(471.56 326.91)"><path d="m0 0 2.11-3.6-0.95-1.62-2.11 3.6z" fill="#f5ba18"/></g><g transform="translate(472.89 257.54)"><path d="m0 0-1.49-2.54-2.55 4.34 1.49 2.54z" fill="#f5ba18"/></g><g transform="translate(471.56 277.7)"><path d="m0 0 2.74 4.69 6.57-11.22-7.98-13.63-2.55 4.34-1.49-2.54-5.5 9.41 6.73 11.48z" fill="#f16022"/></g><g transform="translate(463.31 337.76)"><path d="m0 0 7.3-12.47-7.45-12.72-2.17 3.71-2.01-3.43-6.95 11.86 7.72 11.09c0.01 0.01 0.02 0.01 0.04 0.02 1.14 0.71 2.32 1.36 3.52 1.94" fill="#f7da05"/></g><g transform="translate(470.08 280.23)"><path d="m0 0-6.73-11.48-2.36 4.02-0.94-1.6-6.57 11.22 5.66 9.65 2.18-3.72 2.01 3.43z" fill="#f5ba18"/></g><g transform="translate(463.16 312.57)"><path d="m0 0 6.18-10.55-6.01-10.27-2.18 3.72-2.01-3.43-6.17 10.55 6.01 10.26 2.17-3.71z" fill="#f16022"/></g><g transform="translate(463.35 268.75)"><path d="m0 0 5.5-9.41-7.17-12.25-3.46 5.91-1.75-2.99-4.4 7.53 7.98 13.63 2.36-4.02z" fill="#f7da05"/></g><g transform="translate(463.35 268.75)"><path d="m0 0-0.94-1.6-2.36 4.02 0.94 1.6z" fill="#f7da05"/></g><g transform="translate(461.15 295.47)"><path d="m0 0 2.18-3.72-2.01-3.43-2.18 3.72z" fill="#f5ba18"/></g><g transform="translate(462.31 339.47)"><path d="m0 0 1-1.71c-1.2-0.58-2.38-1.23-3.52-1.94-0.01 0-0.01 0.01-0.02 0.01z" fill="#77c043"/></g><g transform="translate(460.99 316.28)"><path d="m0 0 2.17-3.71-2.01-3.43-2.17 3.71z" fill="#f16022"/></g><g transform="translate(458.22 253)"><path d="m0 0 3.46-5.91-1.75-2.98-3.46 5.9z" fill="#f16022"/></g><g transform="translate(459.93 244.11)"><path d="m0 0 1.75 2.98 5.82-9.94c-5.01 1.72-9.66 4.53-13.75 8.22l2.72 4.64z" fill="#f16022"/></g><g transform="translate(452.97 302.59)"><path d="m0 0 6.17-10.55-5.66-9.65-1.48 2.53-2.74-4.69-6.75 11.52 5.33 9.1 3.07 5.25z" fill="#f7da05"/></g><g transform="translate(452.03 324.71)"><path d="m0 0 6.95-11.86-6.01-10.26-2.06 3.51-3.07-5.25-6.97 11.89 9.87 14.17z" fill="#f5ba18"/></g><g transform="translate(452.07 257.54)"><path d="m0 0 4.4-7.53-2.72-4.64c-3.08 2.76-5.85 6.01-8.23 9.67l2.51 4.3 2.55-4.34z" fill="#f5ba18"/></g><g transform="translate(453.48 282.39)"><path d="m0 0-2.74-4.69-1.48 2.53 2.74 4.69z" fill="#f16022"/></g><g transform="translate(466.57 348.55)"><path d="m0 0c6.45-4.25 12.47-7.12 12.47-7.12-5.55 0-10.86-1.3-15.73-3.67l-1 1.71-2.54-3.64c-7 5.01-8.35 18.19-8.57 24.93-0.02 0.85 1.09 1.18 1.53 0.46 0.99-1.64 2.34-3.26 3.92-4.84 2.86-2.86 6.45-5.54 9.92-7.83" fill="#77c043"/></g><g transform="translate(452.57 392.12)"><path d="m0 0c2.92-6.48 9.68-14.21 15.85-20.43 6.33-6.39 12.05-11.19 12.35-11.45-7.72-6.8-14.2-11.69-14.2-11.69-3.47 2.29-7.06 4.97-9.92 7.83-5.1 13.04-5.72 27.88-5.65 35.41 0 0.88 1.2 1.13 1.57 0.33" fill="#5a7a55"/></g><g transform="translate(452.07 257.54)"><path d="m0 0-1.49-2.54-2.55 4.34 1.49 2.54z" fill="#f5ba18"/></g><g transform="translate(440.85 312.78)"><path d="m0 0c4.17 9.92 10.8 18 18.9 23.02l-7.72-11.09-1.29 2.2-9.87-14.17z" fill="#f16022"/></g><g transform="translate(450.74 277.7)"><path d="m0 0 2.74 4.69 6.57-11.22-7.98-13.63-2.55 4.34-1.49-2.54-5.5 9.41 6.73 11.48z" fill="#f16022"/></g><g transform="translate(440.72 288.7)"><path d="m0 0 1.79 3.05 6.75-11.52-6.73-11.48-2.36 4.02-1.56-2.66c-1.66 5.62-2.57 11.69-2.59 18.01l2.52 4.3z" fill="#f5ba18"/></g><g transform="translate(442.53 268.75)"><path d="m0 0 5.5-9.41-2.51-4.3c-2.27 3.47-4.19 7.31-5.7 11.43l1.77 0.68z" fill="#f7da05"/></g><g transform="translate(447.84 300.85)"><path d="m0 0-5.33-9.1-2.18 3.72-1.79-3.05-2.07 3.53c0.68 5.92 2.16 11.52 4.29 16.64l0.11 0.15z" fill="#f16022"/></g><g transform="translate(442.53 268.75)"><path d="m0 0-0.94-1.6-1.77-0.68c-0.44 1.19-0.84 2.41-1.21 3.64l1.56 2.66z" fill="#f7da05"/></g><g transform="translate(440.33 295.47)"><path d="m0 0 2.18-3.72-1.79-3.05-2.18 3.72z" fill="#f5ba18"/></g><g transform="translate(438.54 292.42)"><path d="m0 0-2.52-4.3v0.2c0 2.59 0.15 5.14 0.45 7.63z" fill="#f7da05"/></g><g transform="translate(477.29 248.51)"><path d="m0 0c20.861 2.762 32.27 22.93 33.449 42.27 0.118 1.928-2.883 1.921-3 0-0.793-13.019-5.505-25.759-16.566-33.402-2.931-2.025-6.162-3.64-9.548-4.748-1.083-0.354-2.181-0.654-3.292-0.906-0.259-0.058-1.808-0.315-1.043-0.214-1.886-0.25-1.911-3.253 0-3" fill="#fff"/></g><g transform="translate(336.79 348.27)"><path d="m0 0c-5.7 0-11.107-1.258-15.955-3.509-1.562-0.721-3.063-1.552-4.503-2.485-10.498-6.735-17.456-18.521-17.456-31.93 0-20.935 16.979-37.914 37.914-37.914 20.945 0 37.914 16.979 37.914 37.914 0 20.945-16.969 37.924-37.914 37.924" fill="#f16022"/></g><g transform="translate(316 354.85)"><path d="m0 0c-0.02 1.055 0.112 1.572 0.396 2.536 0.05 0.182 0.081 0.284 0.081 0.324-0.051-0.03 0.03 0.132 0 0.01 0.03 0 0.091 0.061 0.203 0.234 1.856 2.677-2.414 5.416-4.271 2.728-1.206-1.755-1.683-3.682-1.643-5.67 0.051-2.221 0.741-4.503 1.745-6.654 1.045-2.231 2.434-4.32 3.814-6.075 1.44 0.933 2.941 1.765 4.503 2.485-2.424 2.83-4.767 6.268-4.828 10.082" fill="#723116"/></g><g transform="translate(316.48 357.71)"><path d="m0 0c0.01 0.01 0 0.01 0 0.01 0.03 0.122-0.051-0.04 0-0.01"/></g><g transform="translate(308.86 356.54)"><path d="m0 0c-0.994 0.741-2.09 1.451-3.266 2.13-2.373 1.349-5.051 2.424-7.851 3.013-2.789 0.588-5.69 0.659-8.52 0.233-2.829-0.426-5.578-1.38-8.083-2.789-2.506-1.4-4.768-3.256-6.634-5.275-0.933-1.024-1.775-2.049-2.515-3.053-0.731-1.014-1.359-1.978-1.867-2.85-0.507-0.832-0.882-1.663-1.146-2.15-0.132-0.244-0.233-0.487-0.294-0.629-0.071-0.152-0.101-0.223-0.101-0.223s0.05-0.061 0.162-0.193c0.101-0.111 0.264-0.314 0.456-0.517 0.396-0.396 0.994-1.075 1.725-1.735 0.73-0.689 1.602-1.43 2.596-2.19 0.994-0.761 2.09-1.502 3.276-2.202 2.374-1.409 5.072-2.535 7.871-3.164 2.8-0.639 5.711-0.771 8.541-0.365 2.829 0.406 5.588 1.298 8.104 2.667 2.505 1.36 4.777 3.145 6.653 5.123 0.944 0.983 1.786 1.988 2.526 2.971 0.74 0.984 1.369 1.917 1.876 2.769 0.051 0.081 0.102 0.163 0.142 0.244-1.004 2.15-1.693 4.432-1.744 6.654-0.568 0.507-1.207 1.014-1.907 1.531" fill="#77c043"/></g><g transform="translate(365.52 309.14)"><path d="m0 0c-0.358-15.927-12.8-28.372-28.73-28.73-1.928-0.043-1.935-3.044 0-3 17.569 0.395 31.335 14.161 31.73 31.73 0.043 1.931-2.957 1.931-3 0" fill="#fff"/></g><g transform="translate(203.19 377.18)"><path d="m0 0v0.243s-0.081 0.031-0.223 0.102c-0.152 0.061-0.386 0.172-0.649 0.263-0.528 0.193-1.36 0.558-2.293 0.832-0.963 0.304-2.069 0.599-3.296 0.862-1.217 0.254-2.526 0.457-3.905 0.589-2.749 0.243-5.66 0.111-8.459-0.528-2.81-0.629-5.487-1.765-7.871-3.337-2.384-1.582-4.493-3.57-6.177-5.893-1.684-2.302-2.962-4.889-3.804-7.485-0.426-1.288-0.76-2.556-1.004-3.763-0.172-0.852-0.304-1.664-0.406-2.404 1.461-1.684 2.475-3.844 3.165-6.126 0.091-0.031 0.183-0.061 0.274-0.082 0.953-0.294 2.049-0.568 3.256-0.801 1.207-0.243 2.505-0.416 3.864-0.517 2.719-0.213 5.599-0.02 8.368 0.649 2.789 0.669 5.437 1.846 7.8 3.449 2.373 1.592 4.453 3.641 6.106 5.984 1.663 2.343 2.901 4.99 3.722 7.617 0.406 1.319 0.731 2.607 0.964 3.834 0.223 1.227 0.375 2.374 0.457 3.368 0.101 0.973 0.091 1.886 0.121 2.444 0.01 0.284-0.01 0.538-0.01 0.7" fill="#30592b"/></g><g transform="translate(170.28 324.35)"><path d="m0 0 0.294-0.264c0.031-0.02 0.091-0.081 0.122-0.101 0 0 0.132-0.112 0.426-0.426 0.335-0.355 0.984-1.136 1.582-2.333 0.548-1.136 1.075-2.688 1.552-4.595l0.193-0.771c0.436-1.835 0.943-3.925 1.663-5.923 0.781-2.262 1.745-4.473 2.86-6.573 0.853-1.643 1.755-3.083 2.556-4.361l0.538-0.862c1.572-2.475 2.394-4.301 2.414-4.341 0.659-1.522 2.15-2.425 3.712-2.425 0.548 0 1.096 0.102 1.623 0.335 2.049 0.903 2.992 3.287 2.09 5.346-0.041 0.091-1.045 2.383-2.962 5.396l-0.538 0.852c-0.75 1.207-1.531 2.454-2.251 3.834-0.913 1.734-1.735 3.621-2.394 5.497-0.588 1.633-1.015 3.408-1.43 5.122l-0.193 0.822c-0.629 2.505-1.329 4.534-2.15 6.217-1.015 2.059-2.171 3.5-2.942 4.311-0.415 0.446-0.811 0.822-1.156 1.116l-0.254 0.223c-1.683 1.481-4.249 1.308-5.73-0.375-1.481-1.684-1.309-4.25 0.375-5.721" fill="#fff"/></g><g transform="translate(164.5 342.53)"><path d="m0 0c-3.256-0.122-6.532-1.095-9.341-2.698-6.958-3.996-8.642-10.681-10.367-17.963-1.389-5.893-3.681-11.563-6.775-16.766-2.739-4.605-5.619-8.5-7.353-13.632-3.358-9.94-3.195-21.392 4.239-29.496 11.989-13.074 23.075-5.152 30.53-5.152 7.465 0 18.552-7.922 30.54 5.152 7.435 8.104 7.597 19.556 4.23 29.496-1.735 5.132-4.615 9.027-7.344 13.632-3.093 5.203-5.396 10.873-6.775 16.766-1.724 7.282-3.408 13.967-10.366 17.963-1.876 1.075-3.966 1.866-6.126 2.302-1.369 0.284-2.769 0.426-4.159 0.406-0.314 0-0.629 0-0.933-0.01" fill="#77c043"/></g><g transform="translate(160.1 359.75)"><path d="m0 0c-3.175 0.75-4.524-4.138-1.349-4.889 0.183-0.041 0.264-0.051 0.304-0.051-0.121 0.102 0.092 0.01 0 0 0.041-0.03 0.122-0.081 0.284-0.182 0.863-0.517 1.309-0.822 1.998-1.613 2.455-2.82 3.043-6.826 3.165-10.488 0.304 0.011 0.619 0.011 0.933 0.011 1.39 0.02 2.789-0.122 4.159-0.406-0.081 2.536-0.457 5.558-1.329 8.398-0.69 2.282-1.704 4.443-3.165 6.126-1.298 1.491-2.931 2.607-5 3.094" fill="#723116"/></g><g transform="translate(159.05 354.81)"><path d="m0 0c0.091 0.01-0.122 0.101 0 0"/></g><g transform="translate(192.75 282.39)"><path d="m0 0c-0.282-10.474-8.363-18.555-18.838-18.838-1.926-0.052-1.934-3.052 0-3 12.125 0.327 21.511 9.714 21.838 21.838 0.052 1.931-2.948 1.93-3 0" fill="#fff"/></g><g transform="translate(241.4 145.06)"><path d="m0 0c-0.061 0.142-0.142 0.375-0.264 0.629-0.243 0.487-0.578 1.318-1.045 2.16-0.466 0.873-1.044 1.846-1.734 2.861-0.68 1.024-1.481 2.069-2.363 3.093-1.775 2.069-3.946 3.986-6.39 5.467-2.434 1.501-5.143 2.536-7.952 3.084-2.8 0.547-5.711 0.568-8.551 0.071-0.061-0.011-0.121-0.021-0.182-0.031v-0.01c-2.769-0.477-5.437-1.461-7.83-2.708-1.228-0.649-2.364-1.329-3.388-2.029-0.538-0.365-1.035-0.73-1.501-1.085 0.71-0.943 1.318-1.958 1.825-3.033 1.157-2.414 1.806-5.122 1.806-7.982 0-0.842-0.061-1.674-0.173-2.485 1.745 0.882 3.723 1.379 5.812 1.379 6.015 0 11.066-4.097 12.527-9.656 0.933 0.031 1.866 0.132 2.789 0.274 2.82 0.436 5.558 1.369 7.992 2.597 1.207 0.608 2.343 1.268 3.368 1.947 1.024 0.69 1.937 1.359 2.698 1.988 0.751 0.588 1.379 1.238 1.795 1.593 0.203 0.182 0.376 0.375 0.487 0.476 0.112 0.122 0.172 0.183 0.172 0.183l0.193 0.994s-0.03 0.071-0.091 0.223" fill="#30592b"/></g><g transform="translate(209.47 144.44)"><path d="m0 0c-2.089 0-4.067-0.497-5.812-1.379-0.02-0.244-0.061-0.477-0.111-0.721-0.812-4.686-3.378-8.773-7.009-11.532 0.01-0.213 0.02-0.436 0.051-0.649 3.915-1.917 6.714-5.761 7.171-10.295 1.724-0.852 3.661-1.329 5.71-1.329 7.151 0 12.952 5.802 12.952 12.953 0 1.136-0.152 2.251-0.426 3.296-1.46 5.558-6.511 9.656-12.526 9.656" fill="#902169"/></g><g transform="translate(200.2 156.56)"><path d="m0 0c0.467 0.355 0.964 0.72 1.501 1.085 1.025 0.7 2.16 1.38 3.388 2.029 2.394 1.247 5.061 2.231 7.83 2.708v0.01c0.436 0.568 0.842 1.156 1.227 1.765 1.542 2.424 2.638 5.122 3.206 7.922 0.568 2.809 0.649 5.71 0.202 8.53-0.436 2.819-1.369 5.558-2.606 7.992-0.609 1.207-1.268 2.343-1.948 3.368-0.679 1.024-1.359 1.937-1.988 2.698-0.588 0.75-1.227 1.379-1.592 1.795-0.183 0.213-0.365 0.375-0.477 0.487l-0.172 0.172-0.994 0.193s-0.081-0.03-0.223-0.091-0.386-0.142-0.629-0.264c-0.497-0.243-1.329-0.578-2.161-1.045-0.882-0.466-1.846-1.044-2.87-1.734-1.014-0.68-2.059-1.481-3.094-2.363-2.069-1.775-3.976-3.946-5.467-6.39-1.491-2.435-2.525-5.143-3.073-7.952-0.548-2.8-0.568-5.711-0.081-8.551 0.355-2.099 0.994-4.158 1.826-6.086 3.296-1.277 6.136-3.479 8.195-6.278" fill="#77c043"/></g><g transform="translate(203.54 142.34)"><path d="m0 0c0.051 0.243 0.091 0.477 0.112 0.72-0.183-0.091-0.366-0.182-0.538-0.284 0.142-0.142 0.284-0.294 0.426-0.436" fill="#a04e7d"/></g><g transform="translate(196.58 130.16)"><path d="m0 0c-0.183 0.101-0.375 0.183-0.568 0.264-3.023-2.171-6.735-3.439-10.752-3.439-0.304 0-0.608 0.01-0.912 0.021 0.588-1.816 0.912-3.753 0.912-5.762 0-4.31-1.47-8.286-3.945-11.441 2.363-2.586 5.761-4.219 9.555-4.219 7.16 0 12.952 5.801 12.952 12.952 0 0.446-0.02 0.893-0.071 1.329-0.457 4.534-3.256 8.378-7.171 10.295" fill="#ef5178"/></g><g transform="translate(184.35 127)"><path d="m0 0c-0.994 0.051-1.968 0.173-2.921 0.375-5.335 1.126-9.828 4.534-12.405 9.169-2.363-3.073-6.085-5.061-10.264-5.061-0.112 0-0.213 0-0.325 0.01-2.171 0.051-4.209 0.629-5.984 1.633-2.292 1.278-4.149 3.236-5.315 5.599-1.166-0.345-2.404-0.527-3.692-0.527-4.838 0-9.058 2.657-11.279 6.582-6.228-2.982-10.528-9.351-10.528-16.725 0-3.246 0.831-6.299 2.302-8.956 0.751-1.37 1.674-2.627 2.739-3.753 0.162 0.7 0.365 1.389 0.608 2.049 2.587 7.13 9.423 12.222 17.446 12.222 1.755 0 3.459-0.244 5.072-0.71 3.276-0.923 6.187-2.729 8.448-5.143 3.124-3.316 5.041-7.799 5.041-12.709 0-2.728-0.588-5.325-1.663-7.668 1.613-0.466 3.317-0.71 5.072-0.71 5.933 0 11.217 2.79 14.615 7.121 2.475 3.154 3.946 7.13 3.946 11.441 0 2.008-0.325 3.945-0.913 5.761" fill="#902169"/></g><g transform="translate(203.83 145.55)"><path d="m0 0c0 2.86-0.649 5.568-1.805 7.982-0.508 1.076-1.116 2.09-1.826 3.033-2.059 2.8-4.899 5.001-8.196 6.278-2.089 0.822-4.361 1.269-6.734 1.269-0.274 0-0.548-0.011-0.812-0.021-7.191-0.304-13.318-4.716-16.107-10.934 1.623-1.785 2.749-4.026 3.175-6.502 0.132-0.719 0.193-1.46 0.193-2.21 0-1.796-0.365-3.51-1.025-5.072-0.436-1.014-0.994-1.958-1.663-2.82 2.576-4.635 7.069-8.043 12.404-9.169 0.954-0.203 1.928-0.324 2.922-0.375 0.304-0.01 0.608-0.021 0.913-0.021 4.016 0 7.728 1.269 10.751 3.439 0.182 0.122 0.355 0.244 0.517 0.385 3.632 2.759 6.197 6.847 7.009 11.533-0.142 0.142-0.284 0.294-0.426 0.436 0.172 0.102 0.355 0.193 0.538 0.284 0.111 0.811 0.172 1.643 0.172 2.485" fill="#a64d87"/></g><g transform="translate(184.45 164.09)"><path d="m0 0c-1.826 4.93-6.573 8.439-12.141 8.439-7.151 0-12.942-5.802-12.942-12.953 0-0.75 0.061-1.491 0.192-2.211 3.479-0.203 6.583-1.795 8.784-4.209 2.789 6.218 8.916 10.63 16.107 10.934" fill="#902169"/></g><g transform="translate(158.26 123.77)"><path d="m0 0c-2.262 2.414-5.173 4.219-8.449 5.142-1.613 0.467-3.317 0.71-5.071 0.71-8.023 0-14.86-5.091-17.446-12.222-0.244-0.659-0.446-1.349-0.609-2.049-0.334-1.379-0.507-2.809-0.507-4.29 0-4.443 1.562-8.52 4.169-11.715 3.408-4.179 8.591-6.846 14.393-6.846 7.515 0 13.987 4.462 16.898 10.893 1.075 2.343 1.663 4.939 1.663 7.668 0 4.909-1.917 9.392-5.041 12.709" fill="#a04e7d"/></g><g transform="translate(145.88 145.74)"><path d="m0 0c-0.051-0.426-0.071-0.862-0.071-1.298 0-2.049 0.477-3.986 1.329-5.711 1.166-2.363 3.022-4.321 5.315-5.599 1.775-1.004 3.813-1.582 5.984-1.633 0.111-0.01 0.213-0.01 0.324-0.01 4.179 0 7.902 1.988 10.265 5.062 0.669 0.862 1.227 1.805 1.663 2.819 0.66 1.562 1.025 3.276 1.025 5.072 0 0.75-0.061 1.491-0.193 2.211-0.426 2.475-1.552 4.716-3.175 6.501-2.201 2.414-5.304 4.007-8.783 4.21-0.264 0.02-0.538 0.03-0.802 0.03-1.288 0-2.525-0.182-3.692-0.527-4.949-1.481-8.662-5.832-9.189-11.127" fill="#ef5178"/></g><g transform="translate(143.45 138.2)"><path d="m0 0c1.288 0 2.526 0.183 3.692 0.527-0.852 1.725-1.329 3.662-1.329 5.711 0 0.436 0.02 0.872 0.071 1.298 0.528 5.295 4.24 9.646 9.19 11.127-2.11 4.29-6.522 7.242-11.624 7.242-7.151 0-12.952-5.802-12.952-12.953 0-2.312 0.608-4.483 1.673-6.369 2.221-3.926 6.441-6.583 11.279-6.583" fill="#a04e7d"/></g><g transform="translate(126.68 115.35)"><path d="m0 0c-1.065 1.126-1.988 2.384-2.739 3.753-1.308 0.446-2.708 0.69-4.158 0.69-7.151 0-12.942-5.802-12.942-12.953s5.791-12.952 12.942-12.952c4.361 0 8.216 2.15 10.559 5.457-2.607 3.195-4.169 7.272-4.169 11.715 0 1.48 0.172 2.911 0.507 4.29" fill="#ef5178"/></g><g transform="translate(198.7 145.55)"><path d="m0 0c-0.201-7.468-5.961-13.229-13.43-13.43-1.927-0.052-1.935-3.052 0-3 9.12 0.246 16.184 7.31 16.43 16.43 0.052 1.931-2.948 1.93-3 0" fill="#fff"/></g><g transform="translate(157.26 111.06)"><path d="m0 0c-0.201-7.469-5.961-13.229-13.43-13.43-1.927-0.052-1.935-3.052 0-3 9.12 0.246 16.184 7.31 16.43 16.43 0.052 1.931-2.948 1.93-3 0" fill="#fff"/></g><g transform="translate(166.85 144.44)"><path d="m0 0c-0.121-4.498-3.587-7.964-8.085-8.085-1.927-0.052-1.934-3.052 0-3 6.151 0.166 10.919 4.934 11.085 11.085 0.052 1.931-2.948 1.93-3 0" fill="#fff"/></g><g transform="translate(347.1 111.28)"><path d="m0 0c-5.741-8.997-14.149-16.279-25.266-16.34h-0.385c-11.117 0.061-19.525 7.343-25.266 16.34-8.682 13.622-10.072 29.191-4.291 44.284 1.704 4.473 4.636 8.327 6.36 12.719 2.729 6.958 2.607 15.437 2.607 22.75 0 3.195 0.395 6.461 1.552 9.453 3.306 8.561 11.867 11.442 20.377 10.874 11.836-0.792 19.636-8.358 19.636-20.327 0-7.313-0.122-15.792 2.607-22.75 1.724-4.392 4.655-8.246 6.359-12.719 5.782-15.093 4.392-30.662-4.29-44.284m9.94 44.74c-2.039 5.315-5.518 9.91-7.567 15.123-3.245 8.287-3.103 18.369-3.103 27.071 0 14.241-9.281 23.238-23.369 24.181-10.123 0.679-20.306-2.749-24.242-12.932-1.379-3.56-1.846-7.445-1.846-11.249 0-8.702 0.142-18.784-3.103-27.071-2.049-5.213-5.528-9.808-7.567-15.123-6.877-17.963-5.224-36.484 5.112-52.692 6.826-10.711 16.837-19.373 30.053-19.444h0.467c13.216 0.071 23.227 8.733 30.053 19.444 10.336 16.208 11.989 34.729 5.112 52.692" fill="#723116"/></g><g transform="translate(341.65 132.41)"><path d="m0 0c-0.274-3.864-0.801-7.283-1.532-10.285 0.163-0.334 0.244-0.71 0.244-1.095 0-0.923-0.477-1.735-1.187-2.222-4.006-12.191-11.695-16.309-17.527-16.309-6.004 0-13.977 4.371-17.861 17.425-1.015 0.375-1.735 1.349-1.735 2.495 0 0.67 0.254 1.289 0.68 1.755-0.375 1.826-0.67 3.793-0.893 5.913-0.253 2.546-0.395 5.305-0.395 8.287-0.497 0.477-0.802 1.146-0.802 1.897 0 0.811 0.366 1.541 0.934 2.028 0.273 3.987 0.953 7.77 1.907 11.31-0.477 0.487-0.782 1.156-0.782 1.886 0 1.298 0.944 2.384 2.181 2.617 2.181 6.197 5.102 11.502 7.902 15.711v0.01c-0.031 0.173-0.051 0.356-0.051 0.538 0 1.349 0.994 2.455 2.292 2.637 3.662 4.93 6.623 7.658 6.623 7.658s7.607-7.009 13.49-18.825c2.039-0.751 3.5-2.708 3.5-5.011 0-0.76-0.153-1.47-0.437-2.12 1.126-3.124 2.08-6.471 2.719-10.041 0.243-0.396 0.375-0.862 0.375-1.349 0-0.193-0.02-0.375-0.061-0.558 0.355-2.383 0.568-4.848 0.609-7.394 0.75-0.913 1.197-2.089 1.197-3.367 0-1.39-0.528-2.638-1.39-3.591m3.388 35.875c-2.729 6.958-2.607 15.438-2.607 22.751 0 11.968-7.8 19.535-19.636 20.326-8.51 0.568-17.071-2.313-20.378-10.873-1.156-2.992-1.551-6.258-1.551-9.453 0-7.313 0.121-15.793-2.607-22.751-1.724-4.391-4.656-8.246-6.36-12.719-5.781-15.092-4.392-30.662 4.291-44.284 5.741-8.996 14.149-16.279 25.266-16.34h0.385c11.117 0.061 19.525 7.344 25.266 16.34 8.682 13.622 10.072 29.192 4.29 44.284-1.704 4.473-4.635 8.328-6.359 12.719" fill="#f16022"/></g><g transform="translate(337.7 141.35)"><path d="m0 0c-2.211 0-4.118-1.349-4.929-3.266-0.264-0.639-0.416-1.339-0.416-2.079 0-2.952 2.393-5.346 5.345-5.346 1.572 0 2.982 0.68 3.946 1.755 0.862 0.954 1.389 2.201 1.389 3.591 0 1.278-0.446 2.454-1.197 3.367-0.973 1.207-2.464 1.978-4.138 1.978"/></g><g transform="translate(335.83 124.24)"><path d="m0 0c-1.471 0-2.657 1.197-2.657 2.668 0 1.46 1.186 2.657 2.657 2.657s2.658-1.197 2.658-2.657c0-1.471-1.187-2.668-2.658-2.668m-4.27-8.53c-1.471 0-2.658 1.197-2.658 2.657 0 1.471 1.187 2.668 2.658 2.668s2.667-1.197 2.667-2.668c0-1.46-1.196-2.657-2.667-2.657m-6.005-10.681c-2.951 0-5.345 2.394-5.345 5.346 0 2.941 2.394 5.335 5.345 5.335 2.952 0 5.346-2.394 5.346-5.335 0-2.952-2.394-5.346-5.346-5.346m-8.134 21.584c-1.471 0-2.658 1.197-2.658 2.668 0 0.183 0.021 0.365 0.051 0.538 0.254 1.207 1.319 2.119 2.607 2.119 1.47 0 2.657-1.196 2.657-2.657 0-0.274-0.04-0.548-0.122-0.791-0.334-1.085-1.338-1.877-2.535-1.877m-4.696-14.879c-2.952 0-5.346 2.394-5.346 5.345 0 2.952 2.394 5.345 5.346 5.345 2.951 0 5.335-2.393 5.335-5.345 0-2.951-2.384-5.345-5.335-5.345m2.667-6.035c-1.471 0-2.657 1.197-2.657 2.667 0 1.461 1.186 2.658 2.657 2.658s2.658-1.197 2.658-2.658c0-1.47-1.187-2.667-2.658-2.667m-13.317 24.414c-0.021 0.182-0.031 0.365-0.031 0.547 0 2.952 2.384 5.346 5.335 5.346 2.952 0 5.346-2.394 5.346-5.346 0-0.182-0.011-0.365-0.031-0.547-0.274-2.688-2.546-4.788-5.315-4.788s-5.031 2.1-5.304 4.788m2.637 16.573c0 2.952 2.393 5.345 5.345 5.345 2.942 0 5.335-2.393 5.335-5.345 0-1.288-0.456-2.475-1.217-3.398-0.984-1.186-2.465-1.937-4.118-1.937-1.288 0-2.475 0.456-3.398 1.217-1.186 0.974-1.947 2.455-1.947 4.118m4.189 13.145c0 2.942 2.383 5.335 5.335 5.335s5.345-2.393 5.345-5.335c0-0.365-0.04-0.73-0.111-1.075-0.497-2.434-2.648-4.27-5.234-4.27-1.846 0-3.469 0.933-4.422 2.353-0.578 0.862-0.913 1.887-0.913 2.992m12.749 22.122c1.471 0 2.658-1.187 2.658-2.658 0-1.47-1.187-2.657-2.658-2.657-1.47 0-2.657 1.187-2.657 2.657 0 1.471 1.187 2.658 2.657 2.658m8.612-12.922c0-2.952-2.394-5.335-5.336-5.335-2.951 0-5.345 2.383-5.345 5.335 0 2.951 2.394 5.345 5.345 5.345 2.942 0 5.336-2.394 5.336-5.345m-3.297-10.853c0-1.471-1.186-2.657-2.657-2.657s-2.658 1.186-2.658 2.657c0 0.091 0 0.183 0.01 0.274 0.143 1.339 1.268 2.383 2.648 2.383 1.105 0 2.049-0.669 2.454-1.622 0.132-0.325 0.203-0.67 0.203-1.035m1.653-3.692c2.942 0 5.336-2.394 5.336-5.345 0-2.942-2.394-5.335-5.336-5.335-2.951 0-5.345 2.393-5.345 5.335 0 2.951 2.394 5.345 5.345 5.345m0-17.821c-1.47 0-2.667 1.187-2.667 2.657 0 1.471 1.197 2.658 2.667 2.658 1.461 0 2.658-1.187 2.658-2.658 0-0.375-0.071-0.72-0.213-1.034-0.406-0.954-1.349-1.623-2.445-1.623m-6.968 15.164c0-1.471-1.186-2.658-2.657-2.658s-2.658 1.187-2.658 2.658c0 1.47 1.187 2.657 2.658 2.657s2.657-1.187 2.657-2.657m-5.852-8.723c0.974 0.963 2.302 1.562 3.783 1.562 2.952 0 5.345-2.394 5.345-5.346 0-2.951-2.393-5.345-5.345-5.345-2.951 0-5.345 2.394-5.345 5.345 0 1.471 0.598 2.81 1.562 3.784m15.762-16.726c0-2.951-2.384-5.345-5.335-5.345-2.952 0-5.346 2.394-5.346 5.345 0 0.741 0.153 1.44 0.416 2.079 0.812 1.907 2.719 3.256 4.93 3.256 2.809 0 5.092-2.16 5.315-4.899 0.01-0.142 0.02-0.294 0.02-0.436m6.146 4.28c-2.951 0-5.345 2.394-5.345 5.346 0 0.74 0.152 1.44 0.416 2.079 0.812 1.917 2.718 3.266 4.929 3.266 1.674 0 3.165-0.771 4.139-1.978-0.041 2.546-0.254 5.011-0.609 7.394-0.253-1.197-1.318-2.099-2.596-2.099-1.471 0-2.658 1.186-2.658 2.657s1.187 2.658 2.658 2.658c0.973 0 1.825-0.528 2.282-1.309-0.639 3.57-1.593 6.918-2.719 10.042-0.821-1.897-2.708-3.216-4.909-3.216-2.393 0-4.422 1.572-5.091 3.743-0.163 0.507-0.244 1.035-0.244 1.592 0 2.952 2.384 5.346 5.335 5.346 0.649 0 1.278-0.112 1.846-0.335-5.883 11.816-13.49 18.825-13.49 18.825s-2.961-2.728-6.623-7.658c0.122 0.01 0.244 0.021 0.365 0.021 1.471 0 2.658-1.187 2.658-2.658s-1.187-2.657-2.658-2.657c-1.288 0-2.353 0.902-2.606 2.109-2.8-4.209-5.721-9.514-7.902-15.711 0.152 0.02 0.325 0.041 0.487 0.041 1.004 0 1.887-0.568 2.333-1.39 0.213-0.375 0.325-0.811 0.325-1.268 0-1.47-1.197-2.667-2.658-2.667-0.74 0-1.4 0.294-1.886 0.781-0.954-3.54-1.634-7.323-1.907-11.31 0.466 0.396 1.065 0.629 1.724 0.629 0.558 0 1.065-0.162 1.491-0.456 0.7-0.477 1.166-1.278 1.166-2.201 0-1.471-1.186-2.658-2.657-2.658-0.73 0-1.38 0.284-1.856 0.761 0-2.982 0.142-5.741 0.395-8.287 0.223-2.119 0.518-4.087 0.893-5.913 0.477 0.558 1.187 0.903 1.978 0.903 1.47 0 2.657-1.197 2.657-2.658 0-1.47-1.187-2.667-2.657-2.667-0.325 0-0.639 0.061-0.923 0.172 3.884-13.054 11.857-17.425 17.861-17.425 5.832 0 13.521 4.118 17.527 16.31-0.426-0.284-0.923-0.447-1.471-0.447-1.47 0-2.667 1.197-2.667 2.668 0 1.004 0.568 1.886 1.4 2.333 0.375 0.203 0.801 0.324 1.267 0.324 1.076 0 1.999-0.649 2.414-1.562 0.731 3.003 1.258 6.421 1.532 10.285-0.964-1.075-2.373-1.755-3.946-1.755" fill="#f5ba18"/></g><g transform="translate(338.63 149.98)"><path d="m0 0c-1.471 0-2.657-1.187-2.657-2.658 0-1.47 1.186-2.657 2.657-2.657 1.278 0 2.343 0.903 2.597 2.1-0.092 0.639-0.193 1.278-0.315 1.906-0.456 0.781-1.308 1.309-2.282 1.309"/></g><g transform="translate(337.7 123.69)"><path d="m0 0c-0.467 0-0.893-0.122-1.268-0.325-0.832-0.446-1.4-1.328-1.4-2.332 0-1.471 1.197-2.668 2.668-2.668 0.548 0 1.045 0.162 1.471 0.446 0.71 0.487 1.186 1.299 1.186 2.222 0 0.385-0.081 0.76-0.243 1.095-0.416 0.913-1.339 1.562-2.414 1.562"/></g><g transform="translate(335.83 129.56)"><path d="m0 0c-1.471 0-2.657-1.197-2.657-2.657 0-1.471 1.186-2.668 2.657-2.668s2.658 1.197 2.658 2.668c0 1.46-1.187 2.657-2.658 2.657"/></g><g transform="translate(327.95 160.83)"><path d="m0 0c0-0.558 0.081-1.085 0.243-1.592 0.67-2.171 2.698-3.743 5.092-3.743 2.201 0 4.088 1.318 4.909 3.215 0.284 0.649 0.436 1.359 0.436 2.12 0 2.302-1.46 4.26-3.499 5.011-0.568 0.223-1.197 0.334-1.846 0.334-2.951 0-5.335-2.393-5.335-5.345"/></g><g transform="translate(331.56 121.03)"><path d="m0 0c-1.471 0-2.657-1.197-2.657-2.668 0-1.46 1.186-2.657 2.657-2.657s2.668 1.197 2.668 2.657c0 1.471-1.197 2.668-2.668 2.668"/></g><g transform="translate(323.27 149.14)"><path d="m0 0c0-2.941 2.394-5.335 5.345-5.335 2.942 0 5.335 2.394 5.335 5.335 0 2.952-2.393 5.345-5.335 5.345-2.951 0-5.345-2.393-5.345-5.345"/></g><g transform="translate(326.22 131.71)"><path d="m0 0c-2.211 0-4.118-1.349-4.929-3.256-0.264-0.639-0.416-1.339-0.416-2.079 0-2.952 2.393-5.345 5.345-5.345 2.951 0 5.335 2.393 5.335 5.345 0 0.142-0.01 0.294-0.02 0.436-0.223 2.739-2.506 4.899-5.315 4.899"/></g><g transform="translate(328.61 141.98)"><path d="m0 0c-1.471 0-2.667-1.187-2.667-2.658 0-1.47 1.196-2.657 2.667-2.657 1.096 0 2.039 0.669 2.444 1.623 0.143 0.314 0.213 0.659 0.213 1.034 0 1.471-1.196 2.658-2.657 2.658"/></g><g transform="translate(325.55 115.7)"><path d="m0 0c-2.952 0-5.345-2.394-5.345-5.335 0-2.952 2.393-5.345 5.345-5.345s5.345 2.393 5.345 5.345c0 2.941-2.393 5.335-5.345 5.335"/></g><g transform="translate(319.58 169.03)"><path d="m0 0c0-2.952 2.394-5.335 5.345-5.335 2.942 0 5.335 2.383 5.335 5.335 0 2.951-2.393 5.345-5.335 5.345-2.951 0-5.345-2.394-5.345-5.345"/></g><g transform="translate(324.3 160.83)"><path d="m0 0c-1.379 0-2.505-1.045-2.647-2.383-0.01-0.092-0.01-0.183-0.01-0.274 0-1.471 1.186-2.658 2.657-2.658s2.657 1.187 2.657 2.658c0 0.365-0.07 0.71-0.202 1.034-0.406 0.954-1.349 1.623-2.455 1.623"/></g><g transform="translate(319.58 133.97)"><path d="m0 0c2.952 0 5.345 2.394 5.345 5.345 0 2.952-2.393 5.346-5.345 5.346-1.481 0-2.81-0.599-3.783-1.562-0.964-0.974-1.562-2.313-1.562-3.784 0-2.951 2.393-5.345 5.345-5.345"/></g><g transform="translate(321.65 176.63)"><path d="m0 0c1.471 0 2.657 1.187 2.657 2.657 0 1.471-1.186 2.658-2.657 2.658s-2.657-1.187-2.657-2.658c0-1.47 1.186-2.657 2.657-2.657"/></g><g transform="translate(316.33 151.82)"><path d="m0 0c0-1.471 1.187-2.658 2.658-2.658 1.47 0 2.657 1.187 2.657 2.658s-1.187 2.657-2.657 2.657c-1.471 0-2.658-1.186-2.658-2.657"/></g><g transform="translate(317.42 131.93)"><path d="m0 0c-1.288 0-2.353-0.913-2.607-2.12-0.03-0.172-0.05-0.355-0.05-0.537 0-1.471 1.186-2.668 2.657-2.668 1.197 0 2.201 0.791 2.536 1.876 0.081 0.244 0.122 0.518 0.122 0.792 0 1.46-1.187 2.657-2.658 2.657"/></g><g transform="translate(314.23 154.48)"><path d="m0 0c2.587 0 4.737 1.836 5.234 4.27 0.071 0.345 0.111 0.71 0.111 1.075 0 2.942-2.393 5.335-5.345 5.335s-5.335-2.393-5.335-5.335c0-1.105 0.335-2.13 0.913-2.992 0.953-1.42 2.576-2.353 4.422-2.353"/></g><g transform="translate(315.39 171.71)"><path d="m0 0c1.471 0 2.657 1.187 2.657 2.657 0 1.471-1.186 2.658-2.657 2.658-0.122 0-0.243-0.01-0.365-0.02-1.299-0.183-2.293-1.288-2.293-2.638 0-0.182 0.021-0.365 0.051-0.537v-0.01c0.254-1.207 1.319-2.11 2.607-2.11"/></g><g transform="translate(315.39 111.02)"><path d="m0 0c-1.471 0-2.658-1.197-2.658-2.657 0-1.471 1.187-2.668 2.658-2.668s2.657 1.197 2.657 2.668c0 1.46-1.186 2.657-2.657 2.657"/></g><g transform="translate(312.72 122.42)"><path d="m0 0c-2.952 0-5.345-2.394-5.345-5.345 0-2.952 2.393-5.346 5.345-5.346s5.335 2.394 5.335 5.346c0 2.951-2.383 5.345-5.335 5.345"/></g><g transform="translate(314.17 143.28)"><path d="m0 0c0.761 0.923 1.217 2.11 1.217 3.398 0 2.951-2.394 5.345-5.335 5.345-2.952 0-5.345-2.394-5.345-5.345 0-1.664 0.76-3.144 1.947-4.118 0.923-0.761 2.11-1.217 3.398-1.217 1.653 0 3.134 0.75 4.118 1.937"/></g><g transform="translate(312.69 130.11)"><path d="m0 0c0.02 0.183 0.03 0.365 0.03 0.548 0 2.951-2.393 5.345-5.345 5.345-2.951 0-5.335-2.394-5.335-5.345 0-0.183 0.01-0.365 0.03-0.548 0.274-2.688 2.536-4.787 5.305-4.787s5.041 2.099 5.315 4.787"/></g><g transform="translate(308.02 155.5)"><path d="m0 0c0 0.456-0.112 0.893-0.325 1.268-0.446 0.821-1.328 1.389-2.333 1.389-0.162 0-0.334-0.02-0.486-0.04-1.238-0.233-2.181-1.319-2.181-2.617 0-0.73 0.304-1.4 0.781-1.887 0.487-0.486 1.146-0.781 1.886-0.781 1.461 0 2.658 1.197 2.658 2.668"/></g><g transform="translate(307.36 122.42)"><path d="m0 0c0 1.461-1.187 2.657-2.658 2.657-0.791 0-1.501-0.344-1.977-0.902-0.426-0.467-0.68-1.086-0.68-1.755 0-1.146 0.72-2.12 1.735-2.495 0.283-0.112 0.598-0.173 0.922-0.173 1.471 0 2.658 1.197 2.658 2.668"/></g><g transform="translate(305.95 140.27)"><path d="m0 0c0 0.923-0.467 1.724-1.166 2.201-0.426 0.294-0.934 0.456-1.491 0.456-0.66 0-1.258-0.233-1.725-0.628-0.568-0.487-0.933-1.218-0.933-2.029 0-0.751 0.304-1.42 0.801-1.897 0.477-0.476 1.126-0.761 1.857-0.761 1.47 0 2.657 1.187 2.657 2.658"/></g><g transform="translate(320.47 203.04)"><path d="m0 0c1.662 0.296 4.895 0.048 7.002-0.703 6.303-2.248 8.366-8.703 8.722-14.85 0.112-1.919 3.112-1.931 3 0-0.406 7.007-2.775 14.206-9.647 17.238-3.026 1.335-6.605 1.791-9.875 1.208-1.897-0.338-1.093-3.23 0.798-2.893" fill="#fff"/></g><g transform="translate(497.02 163.37)"><path d="m0 0c0.588 0.314 1.166 0.649 1.724 1.004 2.293 1.461 4.311 3.327 5.914 5.497 1.612 2.171 2.85 4.616 3.59 7.212 0.761 2.587 1.065 5.295 0.984 7.871-0.041 1.288-0.142 2.515-0.315 3.672-0.172 1.146-0.385 2.191-0.618 3.093-0.203 0.883-0.497 1.684-0.639 2.181-0.071 0.243-0.173 0.467-0.213 0.609-0.061 0.142-0.081 0.213-0.081 0.213l-0.771 0.568s-0.081 0-0.233 0.01c-0.143 0.01-0.386 0.03-0.64 0.03-0.517-0.01-1.369 0.03-2.271-0.03-0.934-0.051-1.999-0.163-3.145-0.335s-2.353-0.436-3.601-0.781c-2.474-0.69-4.98-1.785-7.221-3.266-2.262-1.481-4.23-3.388-5.822-5.569-1.603-2.18-2.789-4.655-3.5-7.282-0.72-2.607-0.983-5.355-0.862-7.952 0.061-1.309 0.193-2.556 0.376-3.722 0.192-1.157 0.426-2.222 0.669-3.135 0.02-0.081 0.041-0.152 0.061-0.233 3.053 1.156 6.309 1.785 9.686 1.785 2.222 0 4.575-0.487 6.928-1.44" fill="#77c043"/></g><g transform="translate(515.78 132.03)"><path d="m0 0c0 16.462-9.342 27.558-18.764 31.341-2.354 0.954-4.707 1.441-6.928 1.441-3.377 0-6.633-0.629-9.686-1.785-1.775-0.68-3.479-1.532-5.102-2.556-9.981-6.259-16.776-18.653-16.776-32.924 0-13.409 8.256-32.792 25.691-32.792 0.548 0 1.086 0.02 1.623 0.051 16.675 0.994 29.942 17.273 29.942 37.224" fill="#f16022"/></g><g transform="translate(458.52 127.54)"><path d="m0 0c0 14.271 6.796 26.666 16.776 32.924-8.51 5.822-19.484 5-27.02-2.039-5.66-5.274-8.044-13.612-8.926-21.087-1.765-15.153 3.692-32.7 18.916-38.796 8.551-3.439 18.359-4.514 27.579-3.885l-0.01 0.142c-0.538-0.03-1.075-0.051-1.623-0.051-17.436 0-25.692 19.383-25.692 32.792" fill="#ee9224"/></g><g transform="translate(489.57 155.35)"><path d="m0 0c11.581-2.657 16.433-15.317 16.612-25.944 0.032-1.928 3.032-1.934 3 0-0.201 11.937-5.896 25.873-18.814 28.837-1.88 0.431-2.682-2.461-0.798-2.893" fill="#fff"/></g><g transform="translate(624.89 122.91)"><path d="m0 0c5.077 0 0 8.052 0 8.052s-5.077-8.052 0-8.052" fill="#723116"/></g><g transform="translate(579.04 156.59)"><path d="m0 0c-5.077 0 0 8.052 0 8.052s5.085-8.052 0-8.052m10.681 0s5.085-8.052 0-8.052c-5.077 0 0 8.052 0 8.052m0.519-24.889c-5.076 0 0 8.052 0 8.052s5.085-8.052 0-8.052m11.209 34.416s5.076-8.052 0-8.052c-5.085 0 0 8.052 0 8.052m0.519-24.897c-5.085 0 0 8.06 0 8.06s5.077-8.06 0-8.06m10.162 16.845s5.076-8.052 0-8.052c-5.085 0 0 8.052 0 8.052m0.519-24.897c-5.085 0 0 8.052 0 8.052s5.077-8.052 0-8.052m12.238-2.209s5.077-8.052 0-8.052c-5.076 0 0 8.052 0 8.052m0 17.579s5.077-8.052 0-8.052c-5.076 0 0 8.052 0 8.052m0 17.579s5.077-8.052 0-8.052c-5.076 0 0 8.052 0 8.052m11.786-23.323s5.077-8.052 0-8.052c-5.085 0 0 8.052 0 8.052m0.519 16.845s5.077-8.052 0-8.052c-5.085 0 0 8.052 0 8.052m10.162-26.364s5.076-8.06 0-8.06c-5.085 0 0 8.06 0 8.06m0 17.579s5.076-8.06 0-8.06c-5.085 0 0 8.06 0 8.06m0.519 16.837s5.077-8.052 0-8.052c-5.085 0 0 8.052 0 8.052m11.2-26.364s5.077-8.052 0-8.052 0 8.052 0 8.052m0.519 16.837s5.077-8.052 0-8.052c-5.076 0 0 8.052 0 8.052m-57.624-34.523c-5.085 0 0 8.06 0 8.06s5.077-8.06 0-8.06m68.305 42.575s5.085-8.052 0-8.052c-5.077 0 0 8.052 0 8.052m-45.386-50.85c30.634 0 55.466 24.832 55.466 55.465h-110.93c0-30.633 24.832-55.465 55.465-55.465" fill="#e12226"/></g><g transform="translate(659.59 150.11)"><path d="m0 0c5.077 0 0 8.052 0 8.052s-5.077-8.052 0-8.052" fill="#723116"/></g><g transform="translate(670.27 158.16)"><path d="m0 0c5.085 0 0 8.052 0 8.052s-5.077-8.052 0-8.052" fill="#723116"/></g><g transform="translate(647.35 125.21)"><path d="m0 0c5.077 0 0 8.06 0 8.06s-5.085-8.06 0-8.06" fill="#723116"/></g><g transform="translate(659.07 133.27)"><path d="m0 0c5.077 0 0 8.052 0 8.052s-5.077-8.052 0-8.052" fill="#723116"/></g><g transform="translate(689.16 170.83)"><path d="m0 0c0-35.496-28.779-64.267-64.275-64.267s-64.267 28.771-64.267 64.267h-4.006c0-37.705 30.568-68.272 68.273-68.272s68.272 30.567 68.272 68.272z" fill="#30592b"/></g><g transform="translate(624.89 106.56)"><path d="m0 0c35.496 0 64.275 28.771 64.275 64.267h-8.81c0-30.633-24.831-55.465-55.465-55.465-30.633 0-55.465 24.832-55.465 55.465h-8.802c0-35.496 28.771-64.267 64.267-64.267" fill="#77c043"/></g><g transform="translate(647.87 159.64)"><path d="m0 0c5.077 0 0 8.052 0 8.052s-5.085-8.052 0-8.052" fill="#723116"/></g><g transform="translate(647.35 142.79)"><path d="m0 0c5.077 0 0 8.06 0 8.06s-5.085-8.06 0-8.06" fill="#723116"/></g><g transform="translate(637.19 151.59)"><path d="m0 0c5.077 0 0 8.052 0 8.052s-5.085-8.052 0-8.052" fill="#723116"/></g><g transform="translate(636.67 134.74)"><path d="m0 0c5.077 0 0 8.052 0 8.052s-5.085-8.052 0-8.052" fill="#723116"/></g><g transform="translate(624.89 158.06)"><path d="m0 0c5.077 0 0 8.052 0 8.052s-5.077-8.052 0-8.052" fill="#723116"/></g><g transform="translate(624.89 140.48)"><path d="m0 0c5.077 0 0 8.052 0 8.052s-5.077-8.052 0-8.052" fill="#723116"/></g><g transform="translate(612.65 133.17)"><path d="m0 0c5.077 0 0 8.052 0 8.052s-5.085-8.052 0-8.052" fill="#723116"/></g><g transform="translate(612.13 150.01)"><path d="m0 0c5.077 0 0 8.052 0 8.052s-5.085-8.052 0-8.052" fill="#723116"/></g><g transform="translate(601.97 141.22)"><path d="m0 0c5.077 0 0 8.06 0 8.06s-5.085-8.06 0-8.06" fill="#723116"/></g><g transform="translate(601.97 123.64)"><path d="m0 0c5.077 0 0 8.06 0 8.06s-5.085-8.06 0-8.06" fill="#723116"/></g><g transform="translate(601.45 158.06)"><path d="m0 0c5.077 0 0 8.052 0 8.052s-5.085-8.052 0-8.052" fill="#723116"/></g><g transform="translate(590.24 131.7)"><path d="m0 0c5.085 0 0 8.052 0 8.052s-5.077-8.052 0-8.052" fill="#723116"/></g><g transform="translate(589.72 148.54)"><path d="m0 0c5.085 0 0 8.052 0 8.052s-5.077-8.052 0-8.052" fill="#723116"/></g><g transform="translate(579.04 156.59)"><path d="m0 0c5.085 0 0 8.052 0 8.052s-5.077-8.052 0-8.052" fill="#723116"/></g><g transform="translate(670.56 164.14)"><path d="m0 0c-3.709-22.603-22.744-39.12-45.676-39.457-1.929-0.029-1.934-3.029 0-3 24.158 0.355 44.645 17.746 48.569 41.659 0.31 1.889-2.581 2.701-2.893 0.798" fill="#fff"/></g></g></g></g></svg>
